<svg xmlns="http://www.w3.org/2000/svg" width="100" height="100" viewBox="0 0 1000 1000">
  <defs>
    <style>
      .cls-1 {
        fill: #fff;
      }

      .cls-1, .cls-2 {
        fill-rule: evenodd;
      }

      .cls-2 {
        fill: #ffce00;
      }
    </style>
  </defs>
  <path class="cls-1" d="M519.366,17.012c7.7-.121,14.432.361,19.811,2.95,15.92,7.664,30.468,38.115,21.088,64.909-2.9,8.274-7.969,12.216-12.781,18.071l81.8,7.376-0.639-1.475c15.584,1.48,21.859-4.732,30.355-11.8-0.729,9.548-3.745,20.3-7.349,27.292l-2.876,4.056V136.5c-1.054,7.533-1.13,14.812-2.876,21.39-6.75,25.436-22.342,39.785-43.136,49.051C562.221,225.01,508.775,210.156,483.9,187.4c-8.652-7.916-18.116-24.6-13.42-43.888a56.91,56.91,0,0,1,15.976-27.291l8.627-7.745a68.362,68.362,0,0,0-13.739-17.333c-16.633,2.071-46.981-.943-46.332-17.334,5.686-13.194,25.211-16.37,41.539-16.965C480.523,36.745,492.092,25,508.5,19.224Zm-0.639,29.873c-2.879,1.356-5.61,1.859-7.35,4.426-5.937,8.76-1.435,26.071,11.184,22.866C535.787,70.816,534.363,46.462,518.727,46.884Z"/>
  <path id="C" class="cls-2" d="M244.757,725.364H754.231q24.63,0,38.165-13.548,13.551-13.543,13.543-38.181V327.787q0-26.107-13.3-39.413t-38.412-13.3H424.856V146.98H754.231q33,0,59.1,8.375a169.293,169.293,0,0,1,46.045,22.416,160.505,160.505,0,0,1,34.226,32.27,180.867,180.867,0,0,1,23.146,38.181,196.171,196.171,0,0,1,13.05,40.4,190.831,190.831,0,0,1,4.186,38.181V673.635q0,33.012-8.372,59.366T903.2,779.311A155.3,155.3,0,0,1,870.944,813.3a186.6,186.6,0,0,1-38.166,22.909A195.762,195.762,0,0,1,792.4,849.269a190.542,190.542,0,0,1-38.165,4.187H244.757V725.364Z"/>
  <path id="_1" data-name="1" class="cls-2" d="M311.246,147.522H66.986V275.614H182.714V854H311.246V147.522Z"/>
</svg>
