<?xml version="1.0" standalone="no"?>
<!DOCTYPE svg PUBLIC "-//W3C//DTD SVG 20010904//EN"
 "http://www.w3.org/TR/2001/REC-SVG-20010904/DTD/svg10.dtd">
<svg version="1.0" xmlns="http://www.w3.org/2000/svg"
 width="700.000000pt" height="700.000000pt" viewBox="0 0 700.000000 700.000000"
 preserveAspectRatio="xMidYMid meet">
<metadata>
Created by potrace 1.11, written by Peter Selinger 2001-2013
</metadata>
<g transform="translate(0.000000,700.000000) scale(0.100000,-0.100000)"
fill="#000000" stroke="none">
<path d="M3577 6664 c-32 -121 -59 -226 -61 -234 -38 -158 -49 -185 -108 -243
-54 -55 -98 -128 -113 -190 l-7 -27 -157 0 -157 0 2 -442 c0 -244 2 -445 3
-449 0 -3 520 -5 1154 -5 633 1 1181 -2 1216 -6 155 -18 251 -106 281 -261 16
-80 16 -2551 0 -2622 -29 -135 -112 -219 -245 -250 -37 -9 -457 -12 -1628 -11
l-1577 1 0 2022 0 2021 -855 0 -855 0 0 -449 0 -449 404 0 405 0 0 -1947 c0
-1072 0 -1983 1 -2025 l0 -77 450 0 450 0 0 419 c0 331 3 419 13 415 6 -2 32
-6 57 -9 25 -3 108 -14 185 -25 77 -11 160 -23 185 -26 57 -6 129 -16 155 -21
11 -2 88 -13 170 -24 83 -12 161 -23 175 -25 14 -2 45 -7 70 -10 25 -3 56 -8
70 -10 14 -2 61 -9 105 -15 44 -6 91 -12 105 -14 14 -3 48 -7 75 -11 83 -10
118 -15 155 -21 19 -4 51 -8 70 -10 19 -2 46 -6 60 -9 14 -2 48 -7 75 -10 28
-4 75 -10 105 -15 30 -5 78 -11 105 -15 28 -3 61 -7 75 -10 14 -2 42 -7 63
-10 83 -12 108 -15 140 -19 110 -15 135 -18 157 -22 14 -2 45 -6 70 -9 25 -3
54 -8 65 -10 11 -2 43 -7 70 -10 28 -4 61 -8 75 -11 14 -2 63 -9 110 -15 47
-6 96 -12 110 -15 14 -2 93 -13 175 -24 83 -12 161 -23 175 -25 14 -2 48 -7
75 -11 28 -3 57 -8 65 -9 8 -2 40 -6 70 -10 30 -3 66 -8 80 -10 14 -2 75 -11
135 -20 61 -9 124 -18 140 -20 17 -3 55 -8 85 -11 l56 -6 85 85 c94 94 163
191 220 306 35 72 83 209 94 269 3 15 7 38 10 52 3 14 8 41 12 60 9 54 12
2708 3 2770 -65 454 -289 795 -645 983 -107 56 -272 109 -386 122 -35 5 -73 9
-84 11 -11 1 -215 3 -453 3 -238 1 -431 5 -428 9 3 5 6 35 7 68 1 32 7 65 12
72 15 19 44 103 52 153 l7 42 -33 -22 c-94 -62 -187 -69 -479 -36 -32 4 -78 8
-208 19 -24 3 -46 6 -48 9 -3 3 8 20 24 38 53 61 62 87 69 197 9 126 -43 248
-138 324 -28 23 -49 30 -100 34 l-64 6 -58 -218z"/>
</g>
</svg>
